<svg xmlns="http://www.w3.org/2000/svg" width="82.026" height="82.27" viewBox="0 0 82.026 82.27">
  <g id="investment" transform="translate(-0.297 -0.265)">
    <g id="Group_24" data-name="Group 24" transform="translate(2.683 0.269)">
      <ellipse id="Ellipse_10" data-name="Ellipse 10" cx="5.5" cy="5" rx="5.5" ry="5" transform="translate(66.613 25.996)" fill="#0cda90"/>
      <circle id="Ellipse_11" data-name="Ellipse 11" cx="5.5" cy="5.5" r="5.5" transform="translate(-0.387 1.996)" fill="#0cda90"/>
      <circle id="Ellipse_12" data-name="Ellipse 12" cx="14.321" cy="14.321" r="14.321" transform="translate(27.091)" fill="#0cda90"/>
    </g>
    <g id="Group_25" data-name="Group 25" transform="translate(0.27 0.265)">
      <path id="Path_37" data-name="Path 37" d="M121.137,204.775a3.875,3.875,0,0,0,.254-7.538,11.994,11.994,0,0,0-11.787-9.322,12.427,12.427,0,0,0-1.643.121,12.184,12.184,0,0,0-19,1.107,12.277,12.277,0,0,0-7.469-2.533,11.957,11.957,0,0,0-11.971,10.442h-.162a3.9,3.9,0,0,0-.905,7.723l-1.617,2.759A20.6,20.6,0,0,0,64,217.935a16.908,16.908,0,0,0,6.962,13.574A17.813,17.813,0,0,0,81.405,234.9h26.777a17.813,17.813,0,0,0,10.443-3.394,16.908,16.908,0,0,0,6.962-13.574,20.6,20.6,0,0,0-2.833-10.4Zm-2.556-7.723H100.627a9.437,9.437,0,0,1,17.954,0Zm-30.4-5.221a9.383,9.383,0,0,1,8.456,5.221H79.726A9.382,9.382,0,0,1,88.183,191.831Zm10.711-5.221a9.451,9.451,0,0,1,6.1,2.212,11.95,11.95,0,0,0-6.44,6.167,11.993,11.993,0,0,0-6.724-5.212A9.5,9.5,0,0,1,98.893,186.61Zm-17.405,2.61a9.562,9.562,0,0,1,3.149.529,11.908,11.908,0,0,0-7.818,7.3h-4.6A9.3,9.3,0,0,1,81.488,189.221Zm35.531,40.2a15.073,15.073,0,0,1-8.836,2.871H81.405a15.073,15.073,0,0,1-8.836-2.871,14.307,14.307,0,0,1-5.891-11.486,18.033,18.033,0,0,1,2.481-9.106l2.312-3.946h3.24v-2.61H69.355a1.306,1.306,0,1,1,0-2.61h50.877a1.306,1.306,0,1,1,0,2.61H77.389v2.61h40.728l2.314,3.946a18.046,18.046,0,0,1,2.48,9.106A14.306,14.306,0,0,1,117.019,229.421Z" transform="translate(-53.767 -152.633)" fill="#333"/>
      <path id="Path_38" data-name="Path 38" d="M358.488,315.9l-2.266,1.295,2.631,4.606a13.155,13.155,0,0,1,1.728,6.514,9.185,9.185,0,0,1-3.655,7.311,9.313,9.313,0,0,1-.911.6l1.3,2.262a11.265,11.265,0,0,0,1.175-.775,11.8,11.8,0,0,0,4.7-9.4,15.744,15.744,0,0,0-2.074-7.809Z" transform="translate(-296.919 -263.017)" fill="#333"/>
      <path id="Path_39" data-name="Path 39" d="M328,446.494v2.61a11.664,11.664,0,0,0,2.937-.377l-.655-2.527A9.08,9.08,0,0,1,328,446.494Z" transform="translate(-273.632 -372.055)" fill="#333"/>
      <path id="Path_40" data-name="Path 40" d="M238.526,45.052h-2.61a1.307,1.307,0,0,1-1.305-1.305H232a3.92,3.92,0,0,0,3.916,3.916v2.61h2.61v-2.61a3.916,3.916,0,1,0,0-7.831h-2.61a1.305,1.305,0,0,1,0-2.61h2.61a1.307,1.307,0,0,1,1.305,1.305h2.61a3.92,3.92,0,0,0-3.916-3.916V32h-2.61v2.61a3.916,3.916,0,0,0,0,7.831h2.61a1.305,1.305,0,1,1,0,2.61Z" transform="translate(-193.526 -26.984)" fill="#333"/>
      <rect id="Rectangle_24" data-name="Rectangle 24" width="3" height="4" transform="translate(6.026)" fill="#333"/>
      <rect id="Rectangle_25" data-name="Rectangle 25" width="2.61" height="3.916" transform="translate(5.777 3.935) rotate(135)" fill="#333"/>
      <rect id="Rectangle_26" data-name="Rectangle 26" width="4" height="3" transform="translate(0.026 6)" fill="#333"/>
      <rect id="Rectangle_27" data-name="Rectangle 27" width="3.916" height="2.61" transform="translate(5.777 11.318) rotate(135)" fill="#333"/>
      <rect id="Rectangle_28" data-name="Rectangle 28" width="2.322" height="3.87" transform="translate(6.193 12.109)" fill="#333"/>
      <rect id="Rectangle_29" data-name="Rectangle 29" width="2.61" height="3.916" transform="translate(14.082 12.241) rotate(135)" fill="#333"/>
      <rect id="Rectangle_30" data-name="Rectangle 30" width="3.87" height="2.322" transform="translate(12.229 6.197)" fill="#333"/>
      <rect id="Rectangle_31" data-name="Rectangle 31" width="3.916" height="2.61" transform="translate(14.082 3.012) rotate(135)" fill="#333"/>
      <rect id="Rectangle_32" data-name="Rectangle 32" width="2.322" height="3.87" transform="translate(73.538 23.696)" fill="#333"/>
      <rect id="Rectangle_33" data-name="Rectangle 33" width="2.61" height="3.916" transform="translate(72.584 27.937) rotate(135)" fill="#333"/>
      <rect id="Rectangle_34" data-name="Rectangle 34" width="3.87" height="3.096" transform="translate(65.954 30.008)" fill="#333"/>
      <rect id="Rectangle_35" data-name="Rectangle 35" width="3.916" height="2.61" transform="translate(72.584 35.481) rotate(135)" fill="#333"/>
      <rect id="Rectangle_36" data-name="Rectangle 36" width="2.322" height="3.096" transform="translate(73.538 36.324)" fill="#333"/>
      <rect id="Rectangle_37" data-name="Rectangle 37" width="2.61" height="3.916" transform="translate(80.889 36.408) rotate(135)" fill="#333"/>
      <rect id="Rectangle_38" data-name="Rectangle 38" width="3.87" height="3.096" transform="translate(78.182 30.008)" fill="#333"/>
      <rect id="Rectangle_39" data-name="Rectangle 39" width="3.916" height="2.61" transform="translate(80.891 27.008) rotate(135)" fill="#333"/>
      <rect id="Rectangle_40" data-name="Rectangle 40" width="3.096" height="3.096" transform="translate(18.16 19.743)" fill="#333"/>
      <rect id="Rectangle_41" data-name="Rectangle 41" width="3.096" height="2.322" transform="translate(18.16 25.265)" fill="#333"/>
      <rect id="Rectangle_42" data-name="Rectangle 42" width="2.322" height="2.322" transform="translate(21.314 22.897)" fill="#333"/>
      <rect id="Rectangle_43" data-name="Rectangle 43" width="2.322" height="2.322" transform="translate(15.788 22.897)" fill="#333"/>
      <rect id="Rectangle_44" data-name="Rectangle 44" width="2.322" height="2.322" transform="translate(65.612 0.004)" fill="#333"/>
      <rect id="Rectangle_45" data-name="Rectangle 45" width="2.322" height="3.096" transform="translate(65.612 4.649)" fill="#333"/>
      <rect id="Rectangle_46" data-name="Rectangle 46" width="3" height="3" transform="translate(69.026 2)" fill="#333"/>
      <rect id="Rectangle_47" data-name="Rectangle 47" width="2.322" height="2.322" transform="translate(63.942 2.326)" fill="#333"/>
    </g>
  </g>
</svg>
