<svg xmlns="http://www.w3.org/2000/svg" width="70.789" height="26.154" viewBox="0 0 70.789 26.154">
  <g id="logo" transform="translate(-138.92 -36)">
    <g id="Group_27" data-name="Group 27" transform="translate(-2)">
      <path id="Path_42" data-name="Path 42" d="M1.288,0H5.8V-12.9H1.288ZM3.565-14.1a2.383,2.383,0,0,0,2.622-2.3,2.4,2.4,0,0,0-2.622-2.346A2.411,2.411,0,0,0,.92-16.4,2.391,2.391,0,0,0,3.565-14.1ZM20.539-4.922c0-5.2-7.8-4.416-7.8-6.831a1.075,1.075,0,0,1,1.2-1.15,1.391,1.391,0,0,1,1.5,1.472h4.9c-.161-3.22-2.6-5.037-6.325-5.037-3.427,0-6.072,1.7-6.072,4.876-.069,5.635,7.8,4.416,7.82,7.015,0,.759-.621,1.173-1.426,1.173A1.535,1.535,0,0,1,12.7-5.037H7.889c.184,3.473,2.99,5.2,6.6,5.2C18.331.161,20.539-2.07,20.539-4.922Zm18.17-3.243a8.1,8.1,0,0,0-8.3-8.3,8.134,8.134,0,0,0-8.326,8.3A8.153,8.153,0,0,0,30.406.161,8.134,8.134,0,0,0,38.709-8.165Zm-12.029,0c0-2.553,1.38-4.163,3.726-4.163,2.323,0,3.726,1.61,3.726,4.163,0,2.507-1.4,4.14-3.726,4.14C28.06-4.025,26.68-5.658,26.68-8.165Z" transform="translate(173 57)" fill="#2c2c2c"/>
      <path id="Path_41" data-name="Path 41" d="M23.091,20.071a3.051,3.051,0,0,0-1.685.507l-4.621-4.643a.611.611,0,0,0-.128-.1,4.479,4.479,0,0,0-.844-6.265l1.9-3.344a3.18,3.18,0,1,0-1.067-.6l-1.9,3.34a4.474,4.474,0,0,0-4.371.586c-.009-.011-.017-.023-.027-.033L7.746,6.9a2.042,2.042,0,1,0-.855.879l2.59,2.6c.01.01.022.018.033.027a4.473,4.473,0,0,0-.2,5.159L5.035,19.28a3.175,3.175,0,1,0,.829.9L10.117,16.5a4.475,4.475,0,0,0,5.707.181.6.6,0,0,0,.092.121l4.621,4.643a3.067,3.067,0,1,0,2.555-1.372Z" transform="translate(140.92 35.946)" fill="#0cda90"/>
    </g>
  </g>
</svg>
