<svg id="math" xmlns="http://www.w3.org/2000/svg" width="80.319" height="80.319" viewBox="0 0 80.319 80.319">
  <path id="Path_32" data-name="Path 32" d="M74.536,33.682a35.026,35.026,0,0,0-5.493-13.245l4.094-4.095-9.16-9.16-4.095,4.094A35.006,35.006,0,0,0,46.637,5.783V0H33.682V5.783a35.026,35.026,0,0,0-13.245,5.493L16.342,7.182l-9.16,9.16,4.094,4.095A35.006,35.006,0,0,0,5.783,33.682H0V46.637H5.783a35.026,35.026,0,0,0,5.493,13.245L7.182,63.976l9.16,9.16,4.094-4.094A34.646,34.646,0,0,0,32.086,74.2h.3V66.221a27.2,27.2,0,1,1,15.546,0V74.2h.3a34.667,34.667,0,0,0,11.651-5.156l4.094,4.094,9.16-9.16-4.094-4.095a34.976,34.976,0,0,0,5.493-13.245h5.784V33.682Z" fill="#0cda90"/>
  <g id="Group_22" data-name="Group 22" transform="translate(5.409 5.55)">
    <rect id="Rectangle_9" data-name="Rectangle 9" width="3.083" height="1.541" transform="translate(33.138 0)" fill="#3f3a34"/>
    <rect id="Rectangle_10" data-name="Rectangle 10" width="2.591" height="2.591" transform="translate(12.764 10.792) rotate(135)" fill="#3f3a34"/>
    <rect id="Rectangle_11" data-name="Rectangle 11" width="2.312" height="3.083" transform="translate(0 33.138)" fill="#3f3a34"/>
    <rect id="Rectangle_12" data-name="Rectangle 12" width="2.591" height="2.591" transform="translate(12.76 58.422) rotate(135)" fill="#3f3a34"/>
    <rect id="Rectangle_13" data-name="Rectangle 13" width="2.591" height="2.591" transform="translate(60.39 58.42) rotate(135)" fill="#3f3a34"/>
    <rect id="Rectangle_14" data-name="Rectangle 14" width="1.541" height="3.083" transform="translate(67.818 33.138)" fill="#3f3a34"/>
    <rect id="Rectangle_15" data-name="Rectangle 15" width="2.591" height="2.591" transform="translate(60.394 10.796) rotate(135)" fill="#3f3a34"/>
    <path id="Path_33" data-name="Path 33" d="M148.5,96H131.8l-2.355,21.2-1.986-6.948H120v2.591h5.5l2.591,9.068h3.432l2.591-23.318H148.5Z" transform="translate(-105.977 -86.005)" fill="#3f3a34"/>
    <path id="Path_34" data-name="Path 34" d="M227.659,133.732A5.739,5.739,0,0,0,221.927,128h-.194A5.739,5.739,0,0,0,216,133.732v2.04h2.591v-2.04a3.145,3.145,0,0,1,3.142-3.141h.194a3.141,3.141,0,0,1,2.044,5.526L216,142.95v3.187h11.659v-2.591h-8.373l6.372-5.462A5.732,5.732,0,0,0,227.659,133.732Z" transform="translate(-186.432 -112.823)" fill="#3f3a34"/>
    <path id="Path_35" data-name="Path 35" d="M93.8,64a29.784,29.784,0,0,0-9.068,58.159v11.8h18.136V122.171a29.917,29.917,0,0,0,11.247-6.58l-1.767-1.9a27.355,27.355,0,0,1-9.48,5.752V109.034L96.83,96.966a3.393,3.393,0,0,0-6.068,0l-6.034,12.07v10.4a27.2,27.2,0,1,1,28.969-7.091l1.9,1.766A29.795,29.795,0,0,0,93.8,64Zm1.3,67.364V115.819H92.5v15.546H87.318V110.637H92.5v2.591h2.591v-2.591h5.182v20.727Zm4.381-23.318H88.119l2.591-5.182h6.172Zm-4.96-9.921,1.074,2.148H92.005l1.074-2.148A.831.831,0,0,1,94.512,98.125Z" transform="translate(-59.046 -59.187)" fill="#3f3a34"/>
    <rect id="Rectangle_16" data-name="Rectangle 16" width="13.872" height="2.312" transform="translate(43.927 25.432)" fill="#3f3a34"/>
    <rect id="Rectangle_17" data-name="Rectangle 17" width="9.248" height="2.312" transform="translate(48.551 30.826)" fill="#3f3a34"/>
    <rect id="Rectangle_18" data-name="Rectangle 18" width="13.872" height="2.312" transform="translate(43.927 36.221)" fill="#3f3a34"/>
    <rect id="Rectangle_19" data-name="Rectangle 19" width="2.312" height="1.541" transform="translate(55.487 41.615)" fill="#3f3a34"/>
    <rect id="Rectangle_20" data-name="Rectangle 20" width="8.477" height="1.541" transform="translate(43.927 41.615)" fill="#3f3a34"/>
    <rect id="Rectangle_21" data-name="Rectangle 21" width="3.083" height="2.312" transform="translate(43.927 30.826)" fill="#3f3a34"/>
  </g>
</svg>
