<svg xmlns="http://www.w3.org/2000/svg" width="69.669" height="80.27" viewBox="0 0 69.669 80.27">
  <g id="shield" transform="translate(-19.258)">
    <g id="Group_23" data-name="Group 23" transform="translate(19.258)">
      <circle id="Ellipse_9" data-name="Ellipse 9" cx="18.063" cy="18.063" r="18.063" transform="translate(21.933 16.872)" fill="#0cda90"/>
      <path id="Path_36" data-name="Path 36" d="M86.052,5.26A70.567,70.567,0,0,1,59.733.192L59.253,0l-.479.192A70.573,70.573,0,0,1,32.455,5.26H29.579V32.354H23.128a3.875,3.875,0,0,0-3.87,3.87V58.157a3.875,3.875,0,0,0,3.87,3.871H34.746a33.5,33.5,0,0,0,12.3,11.586l12.2,6.656,12.2-6.656A33.5,33.5,0,0,0,88.927,44.182V5.26Zm-64.214,52.9V36.224a1.291,1.291,0,0,1,1.29-1.29H34.74a1.291,1.291,0,0,1,1.29,1.29V58.157a1.292,1.292,0,0,1-1.29,1.29H23.128A1.292,1.292,0,0,1,21.838,58.157ZM38.611,38.793a8.2,8.2,0,0,0,7.741-8.177V23.968a3.226,3.226,0,0,1,6.451,0v8.12a4.141,4.141,0,0,0,4.136,4.136H66.4a4.473,4.473,0,0,1,4.468,4.468V54.98A4.473,4.473,0,0,1,66.4,59.448H47.388a3.053,3.053,0,0,1-2.543-1.361,5.625,5.625,0,0,0-4.69-2.509H38.611V38.793Zm47.737,5.389A30.927,30.927,0,0,1,70.221,71.348L59.253,77.331,48.286,71.348a30.943,30.943,0,0,1-11.071-10.24,3.843,3.843,0,0,0,1.37-2.7A28.242,28.242,0,0,0,49.522,69.082l9.732,5.309,9.732-5.309a28.346,28.346,0,0,0,14.782-24.9V24.613h-2.58V44.183A25.766,25.766,0,0,1,67.751,66.817l-8.5,4.634-8.5-4.634a25.679,25.679,0,0,1-8.985-8.176,3.029,3.029,0,0,1,.926.877,5.625,5.625,0,0,0,4.69,2.509H66.4a7.056,7.056,0,0,0,7.048-7.048V40.692A7.056,7.056,0,0,0,66.4,33.644H56.939a1.558,1.558,0,0,1-1.556-1.556v-8.12a5.806,5.806,0,0,0-11.612,0v6.647a5.6,5.6,0,0,1-5.166,5.565,3.845,3.845,0,0,0-1.285-2.819V12.853a78.224,78.224,0,0,0,21.933-4.56,78.238,78.238,0,0,0,21.933,4.56v1.439h2.58V10.4l-1.231-.057A75.7,75.7,0,0,1,59.7,5.709l-.448-.167-.448.165A75.718,75.718,0,0,1,35.97,10.34L34.74,10.4V32.354h-2.58V7.84h.3a73.115,73.115,0,0,0,26.8-5.063,73.115,73.115,0,0,0,26.8,5.063h.3V44.182h0Z" transform="translate(-19.258)" fill="#3c4240"/>
      <rect id="Rectangle_22" data-name="Rectangle 22" width="2.58" height="2.58" transform="translate(61.928 19.452)" fill="#333"/>
      <rect id="Rectangle_23" data-name="Rectangle 23" width="9.031" height="2.58" transform="translate(5.16 54.287)" fill="#333"/>
    </g>
  </g>
</svg>
